<?xml version="1.0" standalone="no"?>
<!DOCTYPE svg PUBLIC "-//W3C//DTD SVG 20010904//EN"
 "http://www.w3.org/TR/2001/REC-SVG-20010904/DTD/svg10.dtd">
<svg version="1.0" xmlns="http://www.w3.org/2000/svg"
 width="255.000000pt" height="198.000000pt" viewBox="0 0 255.000000 198.000000"
 preserveAspectRatio="xMidYMid meet">

<g transform="translate(0.000000,198.000000) scale(0.100000,-0.100000)"
fill="#000000" stroke="none">
<path d="M960 1053 l0 -908 191 -60 c105 -33 197 -61 205 -63 12 -3 14 109 14
786 0 783 0 790 21 816 23 29 54 33 87 10 45 -32 47 -41 52 -408 l5 -350 55
-19 c172 -60 315 6 372 171 19 56 23 87 22 192 0 349 -127 488 -569 625 -161
50 -409 115 -437 115 -17 0 -18 -48 -18 -907z"/>
<path d="M529 741 c-345 -124 -440 -165 -485 -212 -34 -36 -37 -86 -8 -126 45
-61 230 -127 431 -154 92 -12 323 -7 378 9 l30 8 3 102 c2 61 -1 102 -7 102
-5 0 -58 -18 -118 -41 -90 -34 -124 -41 -203 -46 -100 -5 -146 4 -157 33 -3 8
1 23 10 31 9 9 118 53 244 99 l228 82 3 116 c2 89 0 116 -10 115 -7 0 -160
-53 -339 -118z"/>
<path d="M1704 745 c-50 -8 -127 -25 -170 -38 l-79 -22 -3 -122 c-1 -68 -1
-123 2 -123 2 0 106 36 231 80 286 101 363 114 458 78 30 -11 36 -38 13 -58
-8 -6 -169 -67 -358 -134 l-343 -123 -3 -118 c-2 -109 -1 -117 15 -112 10 2
223 79 474 169 326 118 472 175 511 202 141 93 97 195 -115 265 -51 17 -126
38 -167 47 -105 23 -350 27 -466 9z"/>
<path d="M2320 182 c-41 -42 -42 -92 -1 -133 47 -47 119 -35 147 25 30 62 -4
124 -73 133 -37 5 -46 2 -73 -25z m117 -3 c23 -20 31 -64 17 -97 -24 -57 -95
-65 -134 -15 -24 31 -25 61 -4 91 28 40 86 50 121 21z"/>
<path d="M2340 121 c0 -28 5 -53 10 -56 6 -4 10 5 10 20 0 22 4 26 23 23 14
-2 23 -11 25 -25 6 -41 21 -24 19 20 -4 56 -12 67 -53 67 l-34 0 0 -49z m65
19 c0 -8 -10 -16 -22 -18 -18 -3 -23 2 -23 18 0 16 5 21 23 18 12 -2 22 -10
22 -18z"/>
</g>
</svg>
