<?xml version="1.0" standalone="no"?>
<!DOCTYPE svg PUBLIC "-//W3C//DTD SVG 20010904//EN"
 "http://www.w3.org/TR/2001/REC-SVG-20010904/DTD/svg10.dtd">
<svg version="1.0" xmlns="http://www.w3.org/2000/svg"
 width="2048.000000pt" height="2048.000000pt" viewBox="0 0 2048.000000 2048.000000"
 preserveAspectRatio="xMidYMid meet">

<g transform="translate(0.000000,2048.000000) scale(0.100000,-0.100000)"
fill="#000000" stroke="none">
<path d="M9685 17378 c-1760 -7 -2351 -15 -2389 -33 -14 -6 -17 -5 -12 3 9 15
-309 16 -524 2 -80 -5 -203 -10 -274 -11 -77 -1 -137 -6 -148 -13 -14 -8 -20
-8 -26 1 -4 7 -16 12 -27 13 -54 2 -225 -1 -265 -5 -142 -15 -398 -25 -480
-20 -82 6 -374 -11 -525 -30 -30 -4 -36 -3 -25 5 21 14 -113 11 -250 -7 -165
-21 -258 -26 -240 -14 23 16 -85 14 -205 -4 -156 -24 -202 -27 -210 -16 -9 15
-65 14 -186 -5 -136 -21 -171 -23 -191 -10 -11 7 -55 4 -146 -8 -80 -11 -147
-15 -176 -11 -45 7 -158 -9 -181 -25 -19 -13 -108 -12 -116 2 -7 10 -21 8 -73
-9 -71 -25 -132 -31 -120 -11 9 14 -45 6 -91 -13 -45 -18 -77 -22 -86 -8 -5 9
-21 6 -64 -11 -47 -19 -58 -21 -65 -10 -7 12 -13 12 -37 0 -15 -8 -34 -21 -42
-29 -12 -11 -17 -10 -28 5 -12 17 -14 17 -43 -4 -33 -25 -47 -27 -52 -10 -3 9
-12 8 -32 -5 -15 -10 -35 -16 -43 -12 -10 3 -27 -5 -44 -21 -25 -24 -28 -24
-37 -8 -9 15 -11 14 -28 -11 -16 -24 -19 -25 -30 -11 -11 15 -14 14 -32 -9
-23 -29 -32 -32 -32 -8 0 14 -4 13 -24 -6 -14 -13 -29 -20 -35 -17 -5 4 -17
-4 -25 -16 -14 -20 -21 -18 -17 5 2 15 -12 6 -32 -19 -19 -25 -21 -25 -28 -8
-6 17 -8 16 -19 -8 -8 -16 -18 -24 -27 -21 -8 3 -21 -3 -29 -13 -15 -18 -15
-18 -10 1 4 15 -1 12 -19 -10 -22 -26 -25 -27 -25 -10 -1 16 -4 14 -17 -10
-15 -27 -17 -28 -23 -10 -7 18 -8 17 -15 -8 -6 -22 -10 -25 -21 -16 -11 9 -15
8 -20 -5 -3 -9 -15 -16 -26 -16 -10 0 -17 -4 -13 -9 3 -5 1 -12 -5 -16 -5 -3
-10 2 -11 12 0 13 -4 10 -13 -9 -9 -22 -15 -25 -24 -16 -9 9 -12 8 -12 -5 0
-9 -5 -17 -11 -17 -5 0 -7 6 -3 13 5 8 3 8 -9 -2 -9 -7 -14 -17 -11 -22 3 -5
-2 -9 -11 -9 -8 0 -18 -7 -22 -16 -5 -13 -7 -13 -14 -2 -7 10 -9 8 -9 -6 0
-11 -5 -16 -14 -13 -7 3 -26 -3 -42 -14 -16 -10 -23 -19 -16 -19 7 0 10 -5 7
-10 -4 -6 -11 -8 -16 -5 -5 4 -9 1 -9 -4 0 -6 -9 -11 -20 -11 -13 0 -18 -5
-14 -15 5 -11 2 -13 -12 -8 -12 4 -15 3 -10 -5 4 -7 1 -12 -7 -12 -8 0 -18 -7
-21 -16 -3 -8 -10 -12 -16 -9 -5 3 -10 3 -10 -2 0 -4 -14 -14 -31 -22 -23 -10
-28 -16 -18 -22 10 -6 8 -9 -8 -9 -16 0 -21 -4 -17 -15 4 -8 2 -15 -3 -15 -5
0 -32 -22 -59 -48 -27 -26 -61 -55 -76 -65 -16 -10 -28 -22 -28 -28 0 -14 -85
-99 -99 -99 -6 0 -11 -8 -11 -18 0 -10 -18 -35 -40 -55 -23 -20 -36 -37 -31
-37 19 0 -1 -31 -25 -41 -13 -4 -24 -13 -24 -19 0 -6 5 -8 11 -4 8 4 8 0 0
-15 -7 -11 -16 -21 -22 -21 -6 0 -9 -5 -7 -12 6 -16 -23 -49 -35 -41 -5 3 -6
-4 -2 -16 4 -14 1 -23 -9 -27 -9 -3 -14 -9 -11 -14 2 -4 -3 -16 -13 -26 -9
-11 -18 -26 -20 -34 -2 -8 -8 -16 -13 -18 -5 -2 -9 -12 -9 -22 0 -10 -4 -20
-8 -22 -7 -3 -42 -72 -76 -151 -91 -212 -85 -197 -114 -277 -48 -129 -64 -177
-93 -273 -37 -122 -63 -219 -84 -307 -9 -36 -20 -81 -25 -100 -13 -48 -47
-216 -64 -315 -17 -96 -40 -282 -66 -535 -6 -58 -15 -143 -20 -190 -5 -47 -14
-139 -20 -205 -6 -66 -15 -165 -20 -220 -12 -116 -44 -523 -59 -740 -26 -360
-31 -443 -41 -660 -6 -126 -16 -324 -22 -440 -16 -288 -23 -1994 -9 -2140 6
-60 16 -243 22 -405 25 -745 161 -2356 235 -2790 62 -369 199 -851 329 -1160
147 -349 280 -563 475 -764 328 -339 733 -569 1227 -696 221 -57 385 -85 758
-130 50 -6 115 -15 145 -20 502 -81 3003 -165 5810 -195 267 -3 708 -8 980
-11 500 -6 2118 7 3075 26 1715 33 3042 84 4180 161 354 23 727 71 890 114 33
9 83 22 110 30 578 153 1169 584 1453 1057 194 325 346 723 471 1238 66 276
91 430 131 823 48 470 86 912 110 1287 6 91 15 226 20 300 5 74 14 275 20 445
6 171 15 373 21 450 17 230 7 2304 -14 2765 -33 734 -88 1467 -162 2180 -36
341 -54 461 -96 648 -5 23 -14 63 -20 90 -5 26 -15 65 -20 87 -6 22 -15 58
-21 80 -5 22 -14 56 -18 75 -10 38 -41 146 -72 250 -96 318 -263 690 -408 907
-172 258 -464 525 -766 705 -131 77 -357 188 -384 188 -6 0 -18 4 -28 10 -18
10 -171 60 -237 78 -118 31 -193 48 -245 56 -19 3 -64 11 -100 16 -181 30
-547 64 -790 75 -58 3 -148 9 -200 14 -52 5 -135 10 -185 10 -49 1 -128 6
-175 11 -47 5 -141 9 -209 9 -68 1 -127 3 -131 6 -5 3 -98 7 -207 10 -109 3
-252 9 -318 14 -66 5 -198 10 -294 11 -96 0 -178 3 -182 6 -5 2 -129 7 -276 9
-147 3 -355 10 -462 15 -107 6 -213 8 -235 5 -23 -4 -239 1 -481 9 -242 9
-467 13 -500 10 -33 -3 -395 1 -805 9 -410 8 -792 14 -850 13 -58 0 -910 -4
-1895 -8z m-1441 -4277 c39 -21 125 -67 191 -101 66 -34 165 -86 220 -115 55
-29 154 -81 220 -115 66 -35 152 -80 190 -100 39 -20 133 -70 210 -110 77 -40
181 -94 230 -120 50 -26 140 -73 200 -105 61 -32 151 -79 200 -105 50 -26 153
-80 230 -120 77 -40 172 -89 210 -110 39 -21 133 -70 210 -110 77 -40 172 -89
210 -110 39 -21 133 -70 210 -110 77 -40 172 -89 210 -110 39 -21 133 -70 210
-110 77 -40 172 -89 210 -110 39 -21 133 -70 210 -110 77 -40 176 -92 220
-115 44 -23 128 -68 188 -99 59 -31 155 -81 215 -112 59 -31 143 -76 187 -99
44 -23 139 -73 210 -110 72 -37 166 -87 210 -110 44 -23 148 -78 230 -121 83
-43 200 -104 260 -135 61 -32 111 -64 113 -72 2 -9 -17 -25 -45 -39 -26 -14
-102 -54 -168 -88 -66 -34 -162 -84 -212 -111 -51 -27 -136 -71 -188 -99 -52
-27 -137 -72 -187 -99 -51 -27 -142 -74 -203 -106 -60 -32 -150 -79 -200 -105
-49 -26 -138 -73 -197 -104 -60 -31 -156 -81 -215 -112 -60 -31 -148 -78 -198
-104 -49 -26 -139 -73 -200 -105 -336 -176 -357 -187 -602 -316 -54 -29 -147
-78 -208 -109 -60 -31 -154 -80 -207 -109 -54 -28 -142 -74 -195 -102 -54 -29
-147 -78 -208 -109 -60 -31 -154 -80 -207 -109 -54 -28 -142 -74 -195 -102
-54 -29 -147 -78 -208 -109 -60 -31 -153 -80 -205 -107 -52 -28 -143 -76 -202
-107 -60 -31 -156 -81 -215 -112 -60 -31 -151 -79 -203 -107 -52 -27 -144 -76
-205 -107 -192 -100 -319 -167 -358 -189 -21 -12 -42 -19 -48 -16 -10 7 -13
5765 -2 5765 3 0 38 -17 77 -39z"/>
</g>
</svg>
